# xmcd
#
# Track frame offsets:
#	150
#	13622
#	21032
#	37715
#	51632
#	63650
#	78725
#	91685
#	107830
#	117780
#	129440
#
# Disc length: 2105 seconds
#
# Revision: 1
# Processed by: cddbd v1.5.1PL0 Copyright (c) Steve Scherf et al.
# Submitted via: audiograbber 1.83.01
#
DISCID=8708370b
DTITLE=Steve Waring - Les grenouilles
DYEAR=1900
DGENRE=Enfants
TTITLE0=La chanson des grenouilles
TTITLE1=Par la poste j'irai chez toi
TTITLE2=The river
TTITLE3=Le matou revient
TTITLE4=Le coucou
TTITLE5=Je te donne l'aurore
TTITLE6=The cuckoo (US Version)
TTITLE7=Errer sans fin
TTITLE8=Promenade à dos d'âne
TTITLE9=Combien
TTITLE10=Tom Banjo
EXTD=il s'agit de la réédition chez "Enfance and Musique" du Vinyl 33 tours 1/3  
EXTD=du même nom sorti il y a de nombreuses années au "Chant du monde"
EXTT0=
EXTT1=
EXTT2=
EXTT3=
EXTT4=
EXTT5=
EXTT6=
EXTT7=
EXTT8=
EXTT9=
EXTT10=
PLAYORDER=
